<?xml version="1.0" encoding="UTF-8"?>
<svg width="18px" height="20px" viewBox="0 0 18 22" version="1.1" xmlns="http://www.w3.org/2000/svg" xmlns:xlink="http://www.w3.org/1999/xlink">
    <!-- Generator: Sketch 50.2 (55047) - http://www.bohemiancoding.com/sketch -->
    <title>logo</title>
    <desc>Created with Sketch.</desc>
    <defs></defs>
    <g id="Symbols" stroke="none" stroke-width="1" fill="none" fill-rule="evenodd">
        <g id="button_appstore" transform="translate(-7.000000, -5.000000)" fill="#FFFFFF" fill-rule="nonzero">
            <g id="App-Store">
                <g id="Group-3">
                    <path d="M23.0796111,23.8522952 C22.2022333,25.1296571 21.2946667,26.3991619 19.86175,26.4257714 C18.4515278,26.452381 17.9994333,25.5941714 16.3902389,25.5941714 C14.7793556,25.5941714 14.2754333,26.3991619 12.943945,26.452381 C11.5606078,26.5039238 10.5087361,25.0727714 9.62412778,23.8011714 C7.81690056,21.2011905 6.43755333,16.4497143 8.29262889,13.243141 C9.21125778,11.6506867 10.8573333,10.6431286 12.6411061,10.6165295 C13.9996167,10.5916381 15.2829611,11.5283667 16.1127333,11.5283667 C16.9437722,11.5283667 18.5014556,10.4037162 20.1390444,10.5686743 C20.8245222,10.5968657 22.7483778,10.8436638 23.9839056,12.6435781 C23.8862667,12.7074724 21.6875444,13.981 21.7143556,16.6342 C21.7412722,19.8035619 24.5039778,20.8570476 24.5360667,20.8714 C24.51105,20.9458857 24.0944222,22.3753619 23.0796111,23.8522952 Z M17.0632611,7.08706952 C17.8216778,6.2022819 19.1031222,5.5441781 20.1606833,5.4999581 C20.2957944,6.72897238 19.7991556,7.95968381 19.06565,8.84651429 C18.3306667,9.73175238 17.1275444,10.4213371 15.9468,10.3292619 C15.7863556,9.12684667 16.3814778,7.87282571 17.0632611,7.08706952 Z" id="logo"></path>
                </g>
            </g>
        </g>
    </g>
</svg>
